<?xml version="1.0" encoding="UTF-8" standalone="no"?>
<!-- Created with Inkscape (http://www.inkscape.org/) -->

<svg
   width="23.803823"
   height="24.000002"
   viewBox="0 0 6.298095 6.3500005"
   version="1.1"
   id="svg1"
   xml:space="preserve"
   xmlns="http://www.w3.org/2000/svg"
   xmlns:svg="http://www.w3.org/2000/svg"><defs
     id="defs1"><linearGradient
       id="paint0_linear_17557_2021"
       x1="3.7755699"
       y1="5.91571"
       x2="5.2318501"
       y2="21.558901"
       gradientUnits="userSpaceOnUse"><stop
         stop-color="#18E299"
         id="stop3" /><stop
         offset="1"
         stop-color="#15803D"
         id="stop4" /></linearGradient><linearGradient
       id="paint1_linear_17557_2021"
       x1="12.1711"
       y1="-0.71842498"
       x2="10.1897"
       y2="22.9832"
       gradientUnits="userSpaceOnUse"><stop
         stop-color="#16A34A"
         id="stop5" /><stop
         offset="1"
         stop-color="#4ADE80"
         id="stop6" /></linearGradient><linearGradient
       id="paint2_linear_17557_2021"
       x1="23.1327"
       y1="15.353"
       x2="9.3384104"
       y2="18.5196"
       gradientUnits="userSpaceOnUse"><stop
         stop-color="#4ADE80"
         id="stop7" /><stop
         offset="1"
         stop-color="#0D9373"
         id="stop8" /></linearGradient></defs><g
     id="layer1"
     transform="translate(-82.523445,-68.691905)"><g
       id="g9"
       transform="matrix(0.02462358,0,0,0.02462358,82.155413,68.495834)"><path
         id="path8"
         style="color:#000000;fill:#34b7f1;-inkscape-stroke:none"
         d="M 161.84758,84.707514 97.380435,164.54611 a 0.98618348,0.98618348 178.37751 0 1 -1.498253,0.0424 L 76.03194,142.6697 a 5.2189635,5.2189635 178.37724 0 0 -7.928909,0.22463 l -5.457453,6.75885 a 7.1331893,7.1331893 88.37635 0 0 0.262755,9.26967 l 28.195881,31.13224 A 8.2221115,8.2221115 178.37627 0 0 103.5955,189.701 l 74.30853,-92.028851 a 6.7934257,6.7934257 83.918949 0 0 -1.01776,-9.553316 L 171.401,83.689802 a 6.7935704,6.7935704 173.9193 0 0 -9.55342,1.017712 z m 45.14613,10.634535 -54.25956,67.198491 a 0.98620748,0.98620748 178.37625 0 1 -1.49827,0.0425 l -4.65305,-5.1376 a 5.2191434,5.2191434 178.37627 0 0 -7.92907,0.22477 l -5.45745,6.75885 a 7.1332665,7.1332665 88.376662 0 0 0.2627,9.26971 l 12.99642,14.3502 a 8.2221567,8.2221567 178.37705 0 0 12.49133,-0.35392 l 64.10377,-79.38793 a 6.7933425,6.7933425 83.919528 0 0 -1.01765,-9.553267 l -5.48582,-4.429507 a 6.7934759,6.7934759 173.91913 0 0 -9.55335,1.017733 z" /><path
         style="color:#000000;opacity:1;fill:#51c85d;fill-opacity:1;stroke-width:0.958083;-inkscape-stroke:none"
         d="m 212.92376,239.63012 v 9.6e-4 c 5.04054,-3.24029 9.84304,-6.8351 14.37125,-10.75881 4.52817,-3.92369 8.7709,-8.16453 12.69435,-12.69351 3.92345,-4.52897 7.51916,-9.33047 10.75816,-14.37146 3.23901,-5.04099 6.11511,-10.30544 8.60394,-15.75611 2.48882,-5.45067 4.58459,-11.0713 6.27248,-16.82061 1.6879,-5.74931 2.96465,-11.61227 3.81739,-17.54222 0.8526,-5.93103 1.27994,-11.91447 1.27994,-17.90419 0,-5.98972 -0.42734,-11.97315 -1.28005,-17.9049 -0.85272,-5.93174 -2.12912,-11.79355 -3.81726,-17.542353 -1.688,-5.749058 -3.78343,-11.368542 -6.27238,-16.819484 -2.48895,-5.450942 -5.36505,-10.715384 -8.60406,-15.756372 -3.239,-5.040988 -6.83471,-9.844353 -10.7579,-14.372195 -3.9237,-4.528188 -8.16643,-8.769038 -12.69461,-12.692733 -4.5282,-3.923698 -9.33071,-7.52038 -14.37125,-10.759726 -5.04062,-3.23924 -10.30568,-6.113263 -15.75598,-8.602167 -5.45014,-2.488987 -11.07184,-4.586299 -16.82072,-6.274323 -5.74882,-1.688138 -11.6106,-2.962669 -17.54116,-3.8154926 -5.93079,-0.8527373 -11.91425,-1.2818109 -17.90605,-1.2816753 -5.99181,1.356e-4 -11.97714,0.4292091 -17.90793,1.2819464 -5.93056,0.8528235 -11.79235,2.1273545 -17.54117,3.8154925 -5.74888,1.688024 -11.368706,3.785336 -16.818846,6.274323 -5.450304,2.488903 -10.717229,5.362919 -15.757853,8.602167 -5.04053,3.239342 -9.843046,6.836018 -14.371251,10.759726 -4.528184,3.923696 -8.76903,8.164537 -12.693603,12.692749 -3.924573,4.528214 -7.51786,9.332595 -10.757029,14.373107 -3.239045,5.040013 -6.115157,10.304456 -8.604081,15.755376 -2.488922,5.450919 -4.586236,11.070399 -6.274236,16.819463 -1.688138,5.748821 -2.962666,11.610611 -3.815376,17.542341 -0.852709,5.93175 -1.280058,11.91518 -1.280056,17.90492 3e-6,5.98971 0.427347,11.97316 1.27994,17.90418 0.852826,5.93054 2.127354,11.79422 3.815492,17.54303 1.687913,5.74846 3.785557,11.36908 6.018689,16.25989 2.233133,4.89081 4.521406,9.0648 6.975317,13.14134 l -22.143959,65.33503 c -0.373526,1.10207 0.664548,2.16084 1.773783,1.80914 l 68.105933,-21.59403 c 2.556543,1.38923 5.079893,2.84186 7.72829,4.05126 5.450144,2.489 11.069976,4.58631 16.818846,6.27433 5.74883,1.68814 11.61061,2.96267 17.54117,3.81549 5.93079,0.85274 11.91612,1.28181 17.90792,1.28181 5.99181,0 11.97527,-0.42907 17.90606,-1.28181 5.93055,-0.85282 11.79234,-2.12735 17.54116,-3.81549 5.74887,-1.68802 11.37058,-3.78533 16.82072,-6.27433 5.4503,-2.4889 10.71535,-5.36292 15.75598,-8.60216 M 144.89984,29.057561 c 4.98727,0 9.96805,0.356838 14.90456,1.066616 4.93628,0.709846 9.81452,1.770399 14.60053,3.175474 4.78602,1.405075 9.46338,3.151014 13.99981,5.222726 4.53655,2.071641 8.92005,4.465109 13.11563,7.161299 4.19548,2.696256 8.192,5.688046 11.96108,8.953963 3.76904,3.265901 7.30109,6.796068 10.56698,10.565115 3.26576,3.769084 6.25785,7.767478 8.95397,11.962943 2.69632,4.195401 5.08948,8.577341 7.16129,13.113767 2.07173,4.536572 3.8158,9.215498 5.22181,14.000636 1.40603,4.78515 2.46659,9.66523 3.17643,14.60153 0.70961,4.93628 1.06475,9.91695 1.06475,14.90268 0,4.98571 -0.35514,9.9664 -1.06475,14.90269 -0.70984,4.93628 -1.7704,9.81638 -3.17643,14.60151 -1.40601,4.78514 -3.15008,9.46409 -5.22181,14.00065 -2.07181,4.53642 -4.46497,8.91836 -7.16129,13.11377 -2.69611,4.19545 -5.68821,8.19384 -8.95397,11.96293 -3.26589,3.76904 -6.79793,7.29921 -10.56698,10.56512 -3.76908,3.26592 -7.76559,6.2577 -11.96108,8.95396 -4.19557,2.69619 -8.57907,5.08966 -13.11563,7.1613 -4.53643,2.07171 -9.21378,3.81765 -13.9998,5.22273 -4.78602,1.40507 -9.66425,2.46562 -14.60054,3.17547 -4.93651,0.70978 -9.91729,1.06662 -14.90456,1.06662 -4.98727,0 -9.96804,-0.35684 -14.90456,-1.06662 -4.93628,-0.70985 -9.81639,-1.7704 -14.60141,-3.17552 -4.78509,-1.40503 -9.46432,-3.15097 -14.00074,-5.22268 -4.935739,-2.17783 -9.553019,-4.96965 -14.178514,-7.72454 L 48.98015,233.4435 c -0.622076,0.19723 -1.204228,-0.39655 -0.994747,-1.01461 l 12.399135,-36.58248 c -4.070453,-5.8988 -7.722989,-12.05597 -10.748498,-18.55725 -2.071726,-4.53656 -3.817668,-9.21551 -5.222677,-14.00075 -1.405122,-4.78502 -2.465672,-9.66512 -3.175523,-14.60141 -0.709601,-4.93631 -1.066615,-9.91698 -1.066617,-14.90269 -2e-6,-4.98572 0.357016,-9.96639 1.066617,-14.90268 0.709851,-4.9363 1.770401,-9.81639 3.175523,-14.60142 1.405008,-4.785238 3.150947,-9.464172 5.222677,-14.000746 2.071806,-4.536425 4.464981,-8.918363 7.161299,-13.113767 2.696122,-4.195469 5.688207,-8.19386 8.953963,-11.962943 3.26589,-3.769039 6.796066,-7.299214 10.565115,-10.565115 3.769064,-3.265908 7.767468,-6.257703 11.962944,-8.953963 4.195552,-2.696182 8.5772,-5.089657 13.113769,-7.161299 4.53643,-2.071712 9.21566,-3.817651 14.00074,-5.222678 4.78503,-1.405123 9.66513,-2.465676 14.60141,-3.175522 4.93652,-0.709778 9.91729,-1.066616 14.90456,-1.066616 z"
         id="path9" /></g></g></svg>
