<?xml version="1.0" encoding="UTF-8" standalone="no"?>
<!-- Created with Inkscape (http://www.inkscape.org/) -->

<svg
   width="1080"
   height="129.8205"
   viewBox="0 0 285.75 34.348339"
   version="1.1"
   id="svg1"
   xml:space="preserve"
   xmlns="http://www.w3.org/2000/svg"
   xmlns:svg="http://www.w3.org/2000/svg"><defs
     id="defs1" /><g
     id="layer1"><g
       id="g27"
       transform="matrix(1.5238168,0,0,1.5238168,-503.34206,-274.0901)"><g
         id="g26"><g
           id="g9"
           transform="matrix(0.08740785,0,0,0.08740785,329.01022,179.17476)"><path
             id="path8"
             style="color:#000000;fill:#34b7f1;-inkscape-stroke:none"
             d="M 161.84758,84.707514 97.380435,164.54611 a 0.98618348,0.98618348 178.37751 0 1 -1.498253,0.0424 L 76.03194,142.6697 a 5.2189635,5.2189635 178.37724 0 0 -7.928909,0.22463 l -5.457453,6.75885 a 7.1331893,7.1331893 88.37635 0 0 0.262755,9.26967 l 28.195881,31.13224 A 8.2221115,8.2221115 178.37627 0 0 103.5955,189.701 l 74.30853,-92.028851 a 6.7934257,6.7934257 83.918949 0 0 -1.01776,-9.553316 L 171.401,83.689802 a 6.7935704,6.7935704 173.9193 0 0 -9.55342,1.017712 z m 45.14613,10.634535 -54.25956,67.198491 a 0.98620748,0.98620748 178.37625 0 1 -1.49827,0.0425 l -4.65305,-5.1376 a 5.2191434,5.2191434 178.37627 0 0 -7.92907,0.22477 l -5.45745,6.75885 a 7.1332665,7.1332665 88.376662 0 0 0.2627,9.26971 l 12.99642,14.3502 a 8.2221567,8.2221567 178.37705 0 0 12.49133,-0.35392 l 64.10377,-79.38793 a 6.7933425,6.7933425 83.919528 0 0 -1.01765,-9.553267 l -5.48582,-4.429507 a 6.7934759,6.7934759 173.91913 0 0 -9.55335,1.017733 z" /><path
             style="color:#000000;opacity:1;fill:#51c85d;fill-opacity:1;stroke-width:0.958083;-inkscape-stroke:none"
             d="m 212.92376,239.63012 v 9.6e-4 c 5.04054,-3.24029 9.84304,-6.8351 14.37125,-10.75881 4.52817,-3.92369 8.7709,-8.16453 12.69435,-12.69351 3.92345,-4.52897 7.51916,-9.33047 10.75816,-14.37146 3.23901,-5.04099 6.11511,-10.30544 8.60394,-15.75611 2.48882,-5.45067 4.58459,-11.0713 6.27248,-16.82061 1.6879,-5.74931 2.96465,-11.61227 3.81739,-17.54222 0.8526,-5.93103 1.27994,-11.91447 1.27994,-17.90419 0,-5.98972 -0.42734,-11.97315 -1.28005,-17.9049 -0.85272,-5.93174 -2.12912,-11.79355 -3.81726,-17.542353 -1.688,-5.749058 -3.78343,-11.368542 -6.27238,-16.819484 -2.48895,-5.450942 -5.36505,-10.715384 -8.60406,-15.756372 -3.239,-5.040988 -6.83471,-9.844353 -10.7579,-14.372195 -3.9237,-4.528188 -8.16643,-8.769038 -12.69461,-12.692733 -4.5282,-3.923698 -9.33071,-7.52038 -14.37125,-10.759726 -5.04062,-3.23924 -10.30568,-6.113263 -15.75598,-8.602167 -5.45014,-2.488987 -11.07184,-4.586299 -16.82072,-6.274323 -5.74882,-1.688138 -11.6106,-2.962669 -17.54116,-3.8154926 -5.93079,-0.8527373 -11.91425,-1.2818109 -17.90605,-1.2816753 -5.99181,1.356e-4 -11.97714,0.4292091 -17.90793,1.2819464 -5.93056,0.8528235 -11.79235,2.1273545 -17.54117,3.8154925 -5.74888,1.688024 -11.368706,3.785336 -16.818846,6.274323 -5.450304,2.488903 -10.717229,5.362919 -15.757853,8.602167 -5.04053,3.239342 -9.843046,6.836018 -14.371251,10.759726 -4.528184,3.923696 -8.76903,8.164537 -12.693603,12.692749 -3.924573,4.528214 -7.51786,9.332595 -10.757029,14.373107 -3.239045,5.040013 -6.115157,10.304456 -8.604081,15.755376 -2.488922,5.450919 -4.586236,11.070399 -6.274236,16.819463 -1.688138,5.748821 -2.962666,11.610611 -3.815376,17.542341 -0.852709,5.93175 -1.280058,11.91518 -1.280056,17.90492 3e-6,5.98971 0.427347,11.97316 1.27994,17.90418 0.852826,5.93054 2.127354,11.79422 3.815492,17.54303 1.687913,5.74846 3.785557,11.36908 6.018689,16.25989 2.233133,4.89081 4.521406,9.0648 6.975317,13.14134 l -22.143959,65.33503 c -0.373526,1.10207 0.664548,2.16084 1.773783,1.80914 l 68.105933,-21.59403 c 2.556543,1.38923 5.079893,2.84186 7.72829,4.05126 5.450144,2.489 11.069976,4.58631 16.818846,6.27433 5.74883,1.68814 11.61061,2.96267 17.54117,3.81549 5.93079,0.85274 11.91612,1.28181 17.90792,1.28181 5.99181,0 11.97527,-0.42907 17.90606,-1.28181 5.93055,-0.85282 11.79234,-2.12735 17.54116,-3.81549 5.74887,-1.68802 11.37058,-3.78533 16.82072,-6.27433 5.4503,-2.4889 10.71535,-5.36292 15.75598,-8.60216 M 144.89984,29.057561 c 4.98727,0 9.96805,0.356838 14.90456,1.066616 4.93628,0.709846 9.81452,1.770399 14.60053,3.175474 4.78602,1.405075 9.46338,3.151014 13.99981,5.222726 4.53655,2.071641 8.92005,4.465109 13.11563,7.161299 4.19548,2.696256 8.192,5.688046 11.96108,8.953963 3.76904,3.265901 7.30109,6.796068 10.56698,10.565115 3.26576,3.769084 6.25785,7.767478 8.95397,11.962943 2.69632,4.195401 5.08948,8.577341 7.16129,13.113767 2.07173,4.536572 3.8158,9.215498 5.22181,14.000636 1.40603,4.78515 2.46659,9.66523 3.17643,14.60153 0.70961,4.93628 1.06475,9.91695 1.06475,14.90268 0,4.98571 -0.35514,9.9664 -1.06475,14.90269 -0.70984,4.93628 -1.7704,9.81638 -3.17643,14.60151 -1.40601,4.78514 -3.15008,9.46409 -5.22181,14.00065 -2.07181,4.53642 -4.46497,8.91836 -7.16129,13.11377 -2.69611,4.19545 -5.68821,8.19384 -8.95397,11.96293 -3.26589,3.76904 -6.79793,7.29921 -10.56698,10.56512 -3.76908,3.26592 -7.76559,6.2577 -11.96108,8.95396 -4.19557,2.69619 -8.57907,5.08966 -13.11563,7.1613 -4.53643,2.07171 -9.21378,3.81765 -13.9998,5.22273 -4.78602,1.40507 -9.66425,2.46562 -14.60054,3.17547 -4.93651,0.70978 -9.91729,1.06662 -14.90456,1.06662 -4.98727,0 -9.96804,-0.35684 -14.90456,-1.06662 -4.93628,-0.70985 -9.81639,-1.7704 -14.60141,-3.17552 -4.78509,-1.40503 -9.46432,-3.15097 -14.00074,-5.22268 -4.935739,-2.17783 -9.553019,-4.96965 -14.178514,-7.72454 L 48.98015,233.4435 c -0.622076,0.19723 -1.204228,-0.39655 -0.994747,-1.01461 l 12.399135,-36.58248 c -4.070453,-5.8988 -7.722989,-12.05597 -10.748498,-18.55725 -2.071726,-4.53656 -3.817668,-9.21551 -5.222677,-14.00075 -1.405122,-4.78502 -2.465672,-9.66512 -3.175523,-14.60141 -0.709601,-4.93631 -1.066615,-9.91698 -1.066617,-14.90269 -2e-6,-4.98572 0.357016,-9.96639 1.066617,-14.90268 0.709851,-4.9363 1.770401,-9.81639 3.175523,-14.60142 1.405008,-4.785238 3.150947,-9.464172 5.222677,-14.000746 2.071806,-4.536425 4.464981,-8.918363 7.161299,-13.113767 2.696122,-4.195469 5.688207,-8.19386 8.953963,-11.962943 3.26589,-3.769039 6.796066,-7.299214 10.565115,-10.565115 3.769064,-3.265908 7.767468,-6.257703 11.962944,-8.953963 4.195552,-2.696182 8.5772,-5.089657 13.113769,-7.161299 4.53643,-2.071712 9.21566,-3.817651 14.00074,-5.222678 4.78503,-1.405123 9.66513,-2.465676 14.60141,-3.175522 4.93652,-0.709778 9.91729,-1.066616 14.90456,-1.066616 z"
             id="path9" /></g><path
           id="path21"
           style="font-size:21.4391px;line-height:1.25;font-family:'Alte DIN 1451 Mittelschrift';-inkscape-font-specification:'Alte DIN 1451 Mittelschrift';fill:#000000;stroke-width:0.535978;fill-opacity:1"
           d="m 461.52222,182.285 v 17.71261 h 1.4366 V 182.285 Z m -40.9205,1.13585 -5.56917,15.26263 h 2.43913 l 1.21439,-3.44372 h 5.7888 l 1.17253,3.44372 h 2.4288 l -5.56917,-15.26263 z m -61.21849,0.0212 3.82096,15.2523 h 1.92598 l 2.91041,-10.99209 h 0.0419 l 2.92075,10.99209 h 1.92598 l 3.82096,-15.2523 h -2.44946 l -2.39727,10.84482 h -0.0419 l -2.96261,-10.84482 h -1.6645 l -2.96261,10.84482 h -0.0419 l -2.39727,-10.84482 z m 19.01021,0 v 15.2523 h 2.18798 v -6.46937 c 0,-0.73278 0.20243,-1.30546 0.6072,-1.71721 0.41175,-0.41175 0.93149,-0.61753 1.55959,-0.61753 0.60716,0 1.11348,0.20578 1.51826,0.61753 0.41174,0.41175 0.61753,0.98443 0.61753,1.71721 v 6.46937 h 2.18798 V 191.471 c 0,-1.22829 -0.39426,-2.16346 -1.18287,-2.80551 -0.78164,-0.64206 -1.59469,-0.96325 -2.43913,-0.96325 -1.20735,0 -2.14975,0.42939 -2.8267,1.28777 h -0.0419 v -5.54798 z m 51.4103,0 v 15.2523 h 2.18746 v -1.13068 c 0.75372,0.83747 1.6889,1.25626 2.80552,1.25626 0.66299,0 1.23566,-0.12936 1.7172,-0.38758 0.48155,-0.26519 0.87917,-0.60369 1.19321,-1.01544 0.3001,-0.38384 0.50252,-0.83723 0.6072,-1.36064 0.11167,-0.5304 0.16743,-1.46557 0.16743,-2.80551 0,-1.32599 -0.0558,-2.24722 -0.16743,-2.76366 -0.10468,-0.52341 -0.3071,-0.98068 -0.6072,-1.37149 -0.31404,-0.40478 -0.71166,-0.73992 -1.19321,-1.00511 -0.48154,-0.27218 -1.05421,-0.40824 -1.7172,-0.40824 -0.56529,0 -1.07445,0.11876 -1.52808,0.35605 -0.44664,0.23728 -0.87266,0.54791 -1.27744,0.93172 v -5.54798 z m 11.11715,0 v 12.62456 c 0,0.97702 0.2649,1.66125 0.7953,2.05207 0.53039,0.38384 1.19343,0.57567 1.98903,0.57567 h 0.96325 v -2.05207 h -0.74311 c -0.54435,0 -0.81649,-0.25096 -0.81649,-0.75344 v -12.44679 z m -38.40851,0.3452 -2.18746,2.33474 v 1.70584 h -1.08882 v 1.67535 h 1.08882 v 9.20151 h 2.18746 v -9.20151 h 1.59164 v -1.67535 h -1.59164 z m 19.06292,2.79518 c 0.2303,0.72581 0.41543,1.30131 0.55501,1.72703 0.13957,0.4257 0.27564,0.8445 0.40824,1.25625 0.13958,0.41175 0.30018,0.88631 0.48162,1.42369 0.18844,0.53039 0.44276,1.26701 0.76378,2.20916 h -4.4173 c 0.30707,-0.88632 0.54796,-1.58783 0.72244,-2.10426 0.18144,-0.51644 0.33817,-0.98428 0.47077,-1.40302 0.13958,-0.41873 0.28288,-0.85146 0.42943,-1.29811 0.14656,-0.45362 0.34175,-1.05702 0.58601,-1.81074 z m -11.86026,1.11983 c -1.15151,0 -2.11509,0.28272 -2.88974,0.84801 -0.77466,0.56528 -1.16169,1.39951 -1.16169,2.50217 0,0.93517 0.29666,1.66457 0.88987,2.18798 0.59321,0.52341 1.3399,0.81956 2.24017,0.88935 l 1.92598,0.17829 c 0.88632,0.0768 1.32964,0.43255 1.32964,1.06763 0,0.4606 -0.20243,0.80968 -0.6072,1.04697 -0.40477,0.2303 -0.91783,0.34519 -1.53892,0.34519 -1.33297,0 -2.47393,-0.46397 -3.42305,-1.39216 l -1.52859,1.5074 c 1.38182,1.29109 2.9767,1.93684 4.7842,1.93684 1.2562,0 2.32073,-0.28996 3.19309,-0.8692 0.87236,-0.57925 1.30845,-1.40237 1.30845,-2.47014 0,-0.85837 -0.24425,-1.59502 -0.73277,-2.20916 -0.48852,-0.62112 -1.29486,-0.96968 -2.41846,-1.04645 l -1.80041,-0.12557 c -0.55133,-0.0419 -0.92829,-0.16452 -1.13068,-0.36691 -0.20238,-0.20238 -0.30334,-0.42211 -0.30334,-0.65939 0,-0.37686 0.13609,-0.68746 0.40824,-0.93172 0.27218,-0.25124 0.75733,-0.37673 1.45521,-0.37673 0.58623,0 1.10933,0.0942 1.56993,0.28267 0.46061,0.18844 0.90729,0.42933 1.33997,0.72244 l 1.35031,-1.59112 c -0.53737,-0.44665 -1.14413,-0.80296 -1.82108,-1.06815 -0.67695,-0.27218 -1.49,-0.40824 -2.43913,-0.40824 z m 40.6275,0 c -1.05381,0 -2.06593,0.40484 -3.03599,1.21439 -0.96308,0.80955 -1.44488,2.2717 -1.44488,4.3863 0,2.23324 0.52363,3.71269 1.57045,4.43849 1.04683,0.71882 2.12866,1.07849 3.24528,1.07849 0.73278,0 1.43429,-0.13271 2.10427,-0.39791 0.67693,-0.27218 1.2837,-0.72221 1.82107,-1.35031 l -1.58078,-1.3503 c -0.69091,0.69788 -1.48614,1.04644 -2.38642,1.04644 -0.75372,0 -1.37493,-0.22308 -1.86345,-0.66972 -0.48155,-0.44665 -0.72244,-1.11692 -0.72244,-2.01022 h 6.76238 v -1.8004 c 0,-1.40275 -0.44616,-2.51583 -1.33945,-3.33933 -0.8933,-0.83049 -1.93666,-1.24592 -3.13004,-1.24592 z m -56.95828,0.0109 c -1.57025,-0.0279 -2.76026,0.49906 -3.56981,1.58078 l 1.67483,1.31878 c 0.1675,-0.30706 0.41562,-0.53401 0.74363,-0.68057 0.33498,-0.11166 0.75325,-0.16744 1.25573,-0.16744 1.45163,-0.0279 2.17431,0.43994 2.16731,1.40302 v 1.15135 h -2.94194 c -1.13058,0.014 -1.98545,0.32792 -2.5647,0.94206 -0.57924,0.61414 -0.86868,1.37478 -0.86868,2.28203 0,0.95611 0.33514,1.7413 1.00511,2.35541 0.61414,0.61412 1.52143,0.93532 2.7218,0.96325 0.69788,0 1.26281,-0.0909 1.6955,-0.27233 0.40477,-0.16749 0.70867,-0.43963 0.91106,-0.81649 h 0.0419 v 0.96325 h 2.1146 v -7.44296 c -0.014,-1.319 -0.41545,-2.25418 -1.20406,-2.80551 -0.80256,-0.53037 -1.86323,-0.78856 -3.18223,-0.77463 z m 56.95828,2.05155 c 0.64206,0 1.17574,0.21637 1.60145,0.64906 0.42574,0.43269 0.65605,1.05726 0.69091,1.87379 h -4.58525 c 0.0209,-0.81653 0.24453,-1.4411 0.67025,-1.87379 0.43268,-0.43269 0.9736,-0.64906 1.62264,-0.64906 z m -16.20521,0.12558 c 1.02587,0 1.63987,0.35243 1.84226,1.0573 0.20937,0.70486 0.31419,1.47273 0.31419,2.30322 0,0.85142 -0.10482,1.62935 -0.31419,2.33422 -0.20239,0.70487 -0.81639,1.0573 -1.84226,1.0573 -1.0259,0 -1.63988,-0.36638 -1.84227,-1.09916 -0.20239,-0.73278 -0.30386,-1.49677 -0.30386,-2.29236 0,-0.77466 0.10147,-1.52858 0.30386,-2.26136 0.20239,-0.73278 0.81637,-1.09916 1.84227,-1.09916 z m -41.02541,4.2292 h 2.54403 v 0.79581 c 0,0.81653 -0.16782,1.33963 -0.50281,1.56993 -0.3629,0.23028 -0.99083,0.33847 -1.88412,0.32453 -0.70487,0 -1.21067,-0.14278 -1.51774,-0.42891 -0.32102,-0.2652 -0.48162,-0.57916 -0.48162,-0.94206 -0.014,-0.84447 0.60002,-1.28444 1.84226,-1.3193 z" /><path
           id="path26"
           style="font-size:18.2025px;line-height:1.25;font-family:'Alte DIN 1451 Mittelschrift';-inkscape-font-specification:'Alte DIN 1451 Mittelschrift';letter-spacing:2.37243px;fill:#51c85d;stroke-width:0.455062"
           d="m 487.69271,184.55514 c -1.01915,0 -1.87506,0.24901 -2.56832,0.74673 -0.68733,0.49772 -1.18247,1.02822 -1.48466,1.59112 -0.21331,0.3792 -0.36146,0.79404 -0.44442,1.24436 -0.0829,0.45032 -0.12402,1.45439 -0.12402,3.01274 0,1.55835 0.0411,2.56293 0.12402,3.01325 0.083,0.45032 0.23111,0.86515 0.44442,1.24437 0.30219,0.56883 0.79733,1.0988 1.48466,1.5906 0.69326,0.48587 1.54917,0.72916 2.56832,0.72916 1.01323,0 1.86342,-0.24329 2.55075,-0.72916 0.69326,-0.4918 1.19698,-1.02177 1.51102,-1.5906 0.20739,-0.37922 0.35268,-0.79405 0.43563,-1.24437 0.083,-0.45032 0.12454,-1.4549 0.12454,-3.01325 0,-1.55835 -0.0416,-2.56242 -0.12454,-3.01274 -0.0829,-0.45032 -0.22824,-0.86516 -0.43563,-1.24436 -0.31404,-0.5629 -0.81776,-1.0934 -1.51102,-1.59112 -0.68733,-0.49772 -1.53752,-0.74673 -2.55075,-0.74673 z m 13.4736,0 c -1.01915,0 -1.87558,0.24901 -2.56884,0.74673 -0.68733,0.49772 -1.18196,1.02822 -1.48414,1.59112 -0.21332,0.3792 -0.36147,0.79404 -0.44442,1.24436 -0.0829,0.45032 -0.12454,1.45439 -0.12454,3.01274 0,1.55835 0.0416,2.56293 0.12454,3.01325 0.083,0.45032 0.2311,0.86515 0.44442,1.24437 0.30218,0.56883 0.79681,1.0988 1.48414,1.5906 0.69326,0.48587 1.54969,0.72916 2.56884,0.72916 1.10802,0 2.0796,-0.31736 2.91507,-0.95137 0.83546,-0.63992 1.38077,-1.56421 1.63556,-2.77295 h -2.07068 c -0.5629,1.17912 -1.3897,1.76888 -2.47995,1.76888 -0.46217,0 -0.86218,-0.0917 -1.19993,-0.27544 -0.33774,-0.1896 -0.60442,-0.41521 -0.79995,-0.67592 -0.25479,-0.31997 -0.42971,-0.6784 -0.52452,-1.07539 -0.0889,-0.397 -0.13332,-1.26201 -0.13332,-2.59519 0,-1.32727 0.0444,-2.18941 0.13332,-2.58641 0.0948,-0.39699 0.26973,-0.76113 0.52452,-1.09295 0.19553,-0.24886 0.46221,-0.46823 0.79995,-0.65784 0.33775,-0.18961 0.73776,-0.28422 1.19993,-0.28422 0.62215,0 1.14927,0.18636 1.58181,0.55965 0.43848,0.37329 0.73816,0.80866 0.89814,1.30638 h 2.07068 c -0.20146,-1.04878 -0.70518,-1.94913 -1.51102,-2.70164 -0.79992,-0.75843 -1.81308,-1.13792 -3.03961,-1.13792 z m 12.08712,0 c -1.33912,0 -2.37904,0.35558 -3.11971,1.0666 -0.73473,0.71104 -1.10226,1.61763 -1.10226,2.71974 0,0.9421 0.29345,1.74786 0.88005,2.41742 0.5866,0.66363 1.43967,1.07274 2.55953,1.2268 0.33774,0.0474 0.63405,0.089 0.88884,0.12454 0.25479,0.0356 0.53056,0.0709 0.82682,0.10645 1.12581,0.14813 1.68827,0.73165 1.68827,1.7508 0,0.5392 -0.22795,0.97508 -0.68419,1.3069 -0.45625,0.33182 -1.08421,0.49764 -1.88413,0.49764 -0.69326,0 -1.35708,-0.11852 -1.99109,-0.35553 -0.63401,-0.23702 -1.19361,-0.551 -1.67948,-0.94207 l -1.2976,1.47537 c 1.35097,1.18506 3.00067,1.77767 4.95009,1.77767 1.3865,0 2.49194,-0.3288 3.31556,-0.98651 0.82362,-0.6577 1.23506,-1.58249 1.23506,-2.77347 0,-0.88287 -0.29007,-1.68862 -0.87075,-2.41742 -0.57474,-0.72881 -1.46654,-1.16704 -2.67528,-1.31517 -0.31404,-0.0356 -0.59267,-0.0686 -0.83561,-0.0982 -0.24294,-0.0356 -0.45035,-0.0681 -0.62219,-0.0977 -0.6577,-0.10073 -1.12842,-0.31101 -1.41283,-0.63097 -0.28442,-0.31997 -0.42685,-0.66358 -0.42685,-1.03095 0,-0.61623 0.21027,-1.07836 0.63097,-1.38648 0.42069,-0.30811 0.93351,-0.46198 1.53789,-0.46198 0.56883,0 1.12558,0.0917 1.6707,0.27543 0.54513,0.18368 1.05456,0.42359 1.52859,0.71985 l 1.09347,-1.61747 c -0.59253,-0.39106 -1.24154,-0.71414 -1.94665,-0.96893 -0.70511,-0.25479 -1.45731,-0.38241 -2.25722,-0.38241 z m -43.58442,0.11576 v 12.9496 h 4.408 c 0.95989,0 1.77473,-0.20456 2.44429,-0.6134 0.67548,-0.41478 1.20597,-0.92421 1.59112,-1.52859 0.29034,-0.45032 0.48293,-0.91818 0.57774,-1.40405 0.10073,-0.4918 0.1509,-1.46675 0.1509,-2.92437 0,-1.35689 -0.0354,-2.27544 -0.10646,-2.75539 -0.0711,-0.47995 -0.26656,-0.9951 -0.58652,-1.54616 -0.85917,-1.45169 -2.17489,-2.17764 -3.94653,-2.17764 z m 1.96422,1.85777 h 2.35489 c 1.00137,0 1.77177,0.36128 2.31097,1.08417 0.2607,0.35551 0.42081,0.75552 0.48008,1.19992 0.0652,0.4444 0.0977,1.24728 0.0977,2.40864 0,1.20284 -0.0296,1.99378 -0.0889,2.37298 -0.0533,0.3733 -0.18666,0.72263 -0.39997,1.04852 -0.52143,0.75251 -1.32146,1.12913 -2.39986,1.12913 h -2.35489 z m 16.05948,0 c 0.46218,0 0.86219,0.0946 1.19993,0.28422 0.33774,0.18961 0.60441,0.40898 0.79995,0.65784 0.25479,0.33182 0.42685,0.69596 0.51573,1.09295 0.0948,0.397 0.14211,1.25914 0.14211,2.58641 0,1.33318 -0.0473,2.19819 -0.14211,2.59519 -0.0889,0.39699 -0.26094,0.75542 -0.51573,1.07539 -0.19554,0.26071 -0.46221,0.48632 -0.79995,0.67592 -0.33774,0.18369 -0.73775,0.27544 -1.19993,0.27544 -0.46217,0 -0.86218,-0.0917 -1.19992,-0.27544 -0.33775,-0.1896 -0.60442,-0.41521 -0.79996,-0.67592 -0.25478,-0.31997 -0.42919,-0.6784 -0.52399,-1.07539 -0.0889,-0.397 -0.13333,-1.26201 -0.13333,-2.59519 0,-1.32727 0.0445,-2.18941 0.13333,-2.58641 0.0948,-0.39699 0.26921,-0.76113 0.52399,-1.09295 0.19554,-0.24886 0.46221,-0.46823 0.79996,-0.65784 0.33774,-0.18961 0.73775,-0.28422 1.19992,-0.28422 z" /></g></g></g></svg>
