<?xml version="1.0" encoding="UTF-8" standalone="no"?>
<!-- Created with Inkscape (http://www.inkscape.org/) -->

<svg
   width="500"
   height="135.51819"
   viewBox="0 0 132.29167 35.855854"
   version="1.1"
   id="svg1"
   xml:space="preserve"
   xmlns="http://www.w3.org/2000/svg"
   xmlns:svg="http://www.w3.org/2000/svg"><defs
     id="defs1" /><g
     id="layer1"><g
       style="fill:none"
       id="g2"
       transform="matrix(0.29879878,0,0,0.29879878,-10.457957,-10.457957)"><g
         id="g1"><title
           id="title1">Layer 1</title><path
           id="svg_1"
           fill="#ea4b71"
           d="m 239,83 c -11.183,0 -20.58,-7.649 -23.244,-18 h -27.508 c -5.866,0 -10.872,4.241 -11.836,10.027 l -0.987,5.919 c -0.936,5.619 -3.779,10.509 -7.799,14.054 4.02,3.545 6.863,8.435 7.799,14.054 l 0.987,5.919 c 0.964,5.786 5.97,10.027 11.836,10.027 h 3.508 c 2.664,-10.351 12.061,-18 23.244,-18 13.255,0 24,10.745 24,24 0,13.255 -10.745,24 -24,24 -11.183,0 -20.58,-7.649 -23.244,-18 h -3.508 c -11.732,0 -21.744,-8.482 -23.673,-20.054 l -0.987,-5.919 C 162.624,105.241 157.618,101 151.752,101 h -9.508 C 139.58,111.351 130.183,119 119,119 107.817,119 98.42,111.351 95.756,101 H 82.244 C 79.58,111.351 70.183,119 59,119 45.7452,119 35,108.255 35,95 35,81.745 45.7452,71 59,71 70.183,71 79.58,78.649 82.244,89 H 95.756 C 98.42,78.649 107.817,71 119,71 c 11.183,0 20.58,7.649 23.244,18 h 9.508 c 5.866,0 10.872,-4.241 11.836,-10.027 l 0.987,-5.919 C 166.504,61.482 176.516,53 188.248,53 h 27.508 C 218.42,42.649 227.817,35 239,35 c 13.255,0 24,10.745 24,24 0,13.255 -10.745,24 -24,24 z m 0,-12 c 6.627,0 12,-5.373 12,-12 0,-6.627 -5.373,-12 -12,-12 -6.627,0 -12,5.373 -12,12 0,6.627 5.373,12 12,12 z M 59,107 c 6.627,0 12,-5.373 12,-12 0,-6.627 -5.373,-12 -12,-12 -6.6274,0 -12,5.373 -12,12 0,6.627 5.3726,12 12,12 z m 72,-12 c 0,6.627 -5.373,12 -12,12 -6.627,0 -12,-5.373 -12,-12 0,-6.627 5.373,-12 12,-12 6.627,0 12,5.373 12,12 z m 96,36 c 0,6.627 -5.373,12 -12,12 -6.627,0 -12,-5.373 -12,-12 0,-6.627 5.373,-12 12,-12 6.627,0 12,5.373 12,12 z"
           clip-rule="evenodd"
           fill-rule="evenodd" /><path
           id="svg_2"
           fill="#101330"
           d="m 407.017,86.887 v -0.571 c 4.187,-2.097 8.374,-5.719 8.374,-12.867 0,-10.294 -8.469,-16.489 -20.173,-16.489 -11.99,0 -20.554,6.576 -20.554,16.679 0,6.863 3.996,10.58 8.374,12.677 v 0.571 c -4.853,1.716 -10.658,6.863 -10.658,15.441 0,10.388 8.564,17.632 22.743,17.632 14.178,0 22.457,-7.244 22.457,-17.632 0,-8.578 -5.71,-13.63 -10.563,-15.441 z M 395.123,65.729 c 4.758,0 8.278,3.049 8.278,8.196 0,5.147 -3.616,8.197 -8.278,8.197 -4.663,0 -8.565,-3.05 -8.565,-8.197 0,-5.242 3.712,-8.196 8.565,-8.196 z m 0,45.081 c -5.52,0 -9.992,-3.526 -9.992,-9.531 0,-5.432 3.711,-9.531 9.896,-9.531 6.091,0 9.802,4.003 9.802,9.722 0,5.814 -4.282,9.34 -9.706,9.34 z"
           clip-rule="evenodd"
           fill-rule="evenodd" /><path
           id="svg_3"
           fill="#101330"
           d="m 432.26,119.007 h 12.18 V 93.178 c 0,-8.483 5.139,-12.2 10.943,-12.2 5.71,0 10.182,3.813 10.182,11.628 v 26.401 h 12.18 V 90.128 c 0,-12.486 -7.232,-19.729 -18.555,-19.729 -7.137,0 -11.134,2.859 -13.989,6.576 h -0.761 l -1.047,-5.623 H 432.26 Z" /><path
           id="svg_4"
           fill="#101330"
           d="M 324.44,119.007 H 312.26 V 71.352 h 11.133 l 1.047,5.623 h 0.761 c 2.855,-3.717 6.852,-6.576 13.989,-6.576 11.323,0 18.555,7.243 18.555,19.729 v 28.879 h -12.18 V 92.606 c 0,-7.815 -4.472,-11.628 -10.182,-11.628 -5.804,0 -10.943,3.717 -10.943,12.2 z" /></g></g></g></svg>
