<?xml version="1.0" encoding="UTF-8" standalone="no"?>
<!-- Created with Inkscape (http://www.inkscape.org/) -->

<svg
   width="935.54297"
   height="802.23016"
   viewBox="0 0 247.52907 212.25673"
   version="1.1"
   id="svg1"
   xml:space="preserve"
   xmlns="http://www.w3.org/2000/svg"
   xmlns:svg="http://www.w3.org/2000/svg"><defs
     id="defs1"><linearGradient
       id="b"
       x1="85.915001"
       x2="86.535004"
       y1="32.567001"
       y2="137.092"
       gradientUnits="userSpaceOnUse"
       gradientTransform="matrix(0.26458333,0,0,0.26458333,76.50289,-255.18637)"><stop
         offset="0"
         stop-color="#57d163"
         id="stop1" /><stop
         offset="1"
         stop-color="#23b33a"
         id="stop2" /></linearGradient><filter
       id="a"
       width="1.1146948"
       height="1.1141825"
       x="-0.057347413"
       y="-0.05709127"
       color-interpolation-filters="sRGB"><feGaussianBlur
         stdDeviation="3.531"
         id="feGaussianBlur2" /></filter></defs><g
     id="layer1"
     transform="translate(79.7941,-49.094202)"><g
       id="g9"
       transform="translate(242.41879,49.84351)"><path
         id="rect1"
         style="display:inline;opacity:1;vector-effect:none;fill:#24d366;fill-opacity:1;fill-rule:evenodd;stroke-width:0.558377;stop-color:#000000;stop-opacity:1"
         d="m -280.33844,-0.74930815 c -23.12661,0 -41.87445,18.74784115 -41.87445,41.87444715 v 93.014481 c 0,23.1266 18.74784,41.87445 41.87445,41.87445 h 2.28513 v 26.62163 c 0,7.42482 8.58889,11.55304 14.38672,6.91482 l 41.92095,-33.53645 h 105.18738 c 23.126612,0 41.874452,-18.74784 41.874452,-41.87445 V 41.125139 c 0,-23.126608 -18.74784,-41.87444715 -41.874452,-41.87444715 z" /><path
         id="ellipse9"
         style="opacity:1;vector-effect:none;fill:#ffffff;fill-opacity:1;fill-rule:evenodd;stroke-width:0.292287;stop-color:#000000;stop-opacity:1"
         d="m -115.45729,22.801709 a 29.968233,29.950693 0 0 0 -29.96871,29.950627 29.968233,29.950693 0 0 0 3.77238,14.389301 l -50.79225,41.514263 a 29.968233,29.950693 0 0 0 -22.75675,-10.482043 29.968233,29.950693 0 0 0 -18.38647,6.388753 l -22.03845,-19.017443 a 29.968233,29.950693 0 0 0 4.15633,-15.09314 29.968233,29.950693 0 0 0 -29.96819,-29.950623 29.968233,29.950693 0 0 0 -29.9682,29.950623 29.968233,29.950693 0 0 0 29.9682,29.950633 29.968233,29.950693 0 0 0 18.70583,-6.627503 l 21.90977,18.907373 a 29.968233,29.950693 0 0 0 -4.34702,15.44195 29.968233,29.950693 0 0 0 29.9682,29.95063 29.968233,29.950693 0 0 0 29.9682,-29.95063 29.968233,29.950693 0 0 0 -1.7539,-9.88518 l 52.17873,-42.647533 a 29.968233,29.950693 0 0 0 19.3523,7.1112 29.968233,29.950693 0 0 0 29.968193,-29.950631 29.968233,29.950693 0 0 0 -29.968193,-29.950627 z" /></g></g><g
     id="g10"
     transform="translate(508.93792,776.44147)"><path
       id="path3"
       style="fill:#ffffff;fill-opacity:1;stroke-width:0.264583"
       d="m 99.564466,-251.7991 c -10.730695,0 -19.463046,8.72936 -19.467546,19.45979 a 19.425708,19.425708 0 0 0 2.598291,9.72964 l -2.761588,10.08414 10.319783,-2.7063 c 2.843475,1.55046 6.044463,2.36837 9.302275,2.36937 h 0.0088 c 10.729109,0 19.462029,-8.73119 19.467029,-19.46083 0.002,-5.20011 -2.02044,-10.08965 -5.6963,-13.76815 -3.67585,-3.6785 -8.56347,-5.70466 -13.770729,-5.70766 z m 0.0057,3.28714 a 16.073437,16.073437 0 0 1 11.439614,4.74389 16.073437,16.073437 0 0 1 4.7346,11.44323 c -0.003,8.91883 -7.26159,16.17524 -16.179899,16.17524 h -0.0062 c -2.904063,-0.002 -5.752032,-0.78117 -8.235673,-2.25516 l -0.591179,-0.34985 -6.124174,1.60559 1.635043,-5.96863 -0.38499,-0.61185 a 16.134291,16.134291 0 0 1 -2.47375,-8.60826 c 0.0032,-8.9183 7.261428,-16.1742 16.186608,-16.1742 z" /><path
       fill="#ffffff"
       fill-rule="evenodd"
       d="m 94.698815,-240.47474 c -0.364596,-0.80989 -0.748242,-0.8263 -1.094581,-0.84032 l -0.932392,-0.0114 c -0.324379,0 -0.851429,0.12171 -1.296988,0.60854 -0.445558,0.48684 -1.702593,1.66344 -1.702593,4.0566 0,2.39315 1.743075,4.70561 1.985962,5.03052 0.242888,0.32491 3.364971,5.39247 8.30924,7.34219 4.108717,1.62031 4.944797,1.29804 5.836977,1.21708 0.89217,-0.081 2.87787,-1.1766 3.28295,-2.31246 0.40507,-1.13585 0.40534,-2.10899 0.28389,-2.31246 -0.12144,-0.20346 -0.44582,-0.32438 -0.93265,-0.56779 -0.48684,-0.24342 -2.87788,-1.42002 -3.3237,-1.58248 -0.44582,-0.16245 -0.76994,-0.24315 -1.09458,0.24369 -0.32464,0.48683 -1.25571,1.58194 -1.53961,1.90658 -0.2839,0.32465 -0.56727,0.36539 -1.0541,0.12224 -0.48683,-0.24315 -2.053167,-0.75697 -3.9116,-2.41406 -1.445948,-1.28931 -2.421996,-2.88157 -2.706159,-3.36814 -0.284162,-0.48657 -0.03016,-0.7501 0.213784,-0.99246 0.218281,-0.21801 0.486304,-0.56806 0.729985,-0.85195 0.243681,-0.2839 0.32385,-0.48684 0.485775,-0.81095 0.161925,-0.32412 0.08123,-0.60881 -0.04048,-0.85196 -0.121708,-0.24315 -1.0668,-2.64874 -1.499129,-3.61077"
       id="path6"
       style="stroke-width:0.264583" /></g><g
     id="g16"
     transform="translate(448.63616,435.9257)"><path
       id="path5"
       style="display:inline;fill:none;fill-opacity:1;fill-rule:evenodd;stroke:#ffffff;stroke-width:2.91042;stroke-dasharray:none;stroke-opacity:1;stop-color:#000000"
       d="m 56.367318,86.181873 c -4.835953,0 -8.75627,3.920319 -8.75627,8.756265 v 19.450042 c 0,4.83596 3.920317,8.75628 8.75627,8.75628 h 0.477838 v 5.56678 c 0,1.55259 1.796004,2.41584 3.008375,1.44595 l 8.765994,-7.01273 h 21.995493 c 4.835953,0 8.756272,-3.92032 8.756272,-8.75628 V 94.938138 c 0,-4.835946 -3.920319,-8.756265 -8.756272,-8.756265 z" /><path
       id="path7"
       style="vector-effect:none;fill:#ffffff;fill-opacity:1;fill-rule:evenodd;stroke-width:0.0593933;stop-color:#000000"
       d="m 90.355256,91.506043 a 6.0895989,6.0860348 0 0 0 -6.089551,6.085934 6.0895989,6.0860348 0 0 0 0.591179,2.487183 l -10.642762,8.40518 a 6.0895989,6.0860348 0 0 0 -4.127396,-1.66244 6.0895989,6.0860348 0 0 0 -3.736206,1.29812 l -0.908472,-0.78394 -3.505729,-3.23184 a 6.0895989,6.0860348 0 0 0 0.780314,-2.91558 6.0895989,6.0860348 0 0 0 -6.089551,-6.085937 6.0895989,6.0860348 0 0 0 -6.089551,6.085937 6.0895989,6.0860348 0 0 0 6.089551,6.08593 6.0895989,6.0860348 0 0 0 3.323311,-1.04386 l 4.590935,4.2323 a 6.0895989,6.0860348 0 0 0 -0.544153,2.44481 6.0895989,6.0860348 0 0 0 6.089551,6.08593 6.0895989,6.0860348 0 0 0 6.08955,-6.08593 6.0895989,6.0860348 0 0 0 -0.351399,-1.98851 l 10.817427,-8.54057 a 6.0895989,6.0860348 0 0 0 3.712952,1.29915 6.0895989,6.0860348 0 0 0 6.089551,-6.085933 6.0895989,6.0860348 0 0 0 -6.089551,-6.085934 z" /></g><text
     xml:space="preserve"
     style="font-size:30.607px;line-height:1.25;font-family:KarnaphuliOMJ;-inkscape-font-specification:KarnaphuliOMJ;fill:#ffffff;fill-opacity:1;stroke-width:0.765176"
     x="560.11053"
     y="552.62585"
     id="text16"><tspan
       id="tspan16"
       style="fill:#ffffff;fill-opacity:1;stroke-width:0.765176"
       x="560.11053"
       y="552.62585">x</tspan></text></svg>
