<?xml version="1.0" encoding="UTF-8" standalone="no"?>
<svg
   width="820.00006"
   height="186.26874"
   viewBox="0 0 820.00006 186.26874"
   version="1.1"
   id="svg12"
   xmlns:xlink="http://www.w3.org/1999/xlink"
   xmlns="http://www.w3.org/2000/svg"
   xmlns:svg="http://www.w3.org/2000/svg"
   xmlns:rdf="http://www.w3.org/1999/02/22-rdf-syntax-ns#"
   xmlns:cc="http://creativecommons.org/ns#"
   xmlns:dc="http://purl.org/dc/elements/1.1/">
  <!-- Generator: Sketch 52.4 (67378) - http://www.bohemiancoding.com/sketch -->
  <title
     id="title1">&#10;  Pipedrive_full_logo_dark@1,5x&#10; </title>
  <desc
     id="desc1">&#10;  Created with Sketch.&#10; </desc>
  <defs
     id="defs1">
    <polygon
       id="path-1"
       points="0,0 820,0 820,304 0,304 " />
    <path
       d="m 127.0461,96.3962 c 0,1.3191 0.5088,1.8503 1.8247,1.8503 h 8.1847 v 20.8849 h -21.2732 c -8.5356,0 -12.5183,-4.0636 -12.5183,-12.8107 V 55.5118 c 0,-1.39 -0.4474,-1.8415 -1.8247,-1.8415 H 93.2546 V 32.5995 h 21.2469 c 8.4303,0 12.5446,4.1964 12.5446,12.8107 z"
       id="path-3" />
    <path
       d="m 184.3056,100.1951 c 9.5182,0 19.1064,-7.4102 19.1064,-24.0012 0,-14.5459 -7.5443,-24.3111 -18.773,-24.3111 -9.1584,0 -18.9397,6.4275 -18.9397,24.4793 0,11.465 5.8424,23.833 18.6063,23.833 z m 4.8512,-69.5513 c 22.94,0 38.3619,18.1758 38.3619,45.2314 0,26.6306 -16.2378,45.2225 -39.4848,45.2225 -11.0708,0 -18.194,-4.7453 -21.8872,-8.1804 0.0263,0.8145 0.0526,1.7264 0.0526,2.7003 v 36.11249 H 142.4084 V 55.5126 c 0,-1.3988 -0.4474,-1.8414 -1.8246,-1.8414 h -8.176 V 32.6003 h 19.9574 c 9.1847,0 11.527,4.6746 11.9656,8.2779 3.7458,-4.1788 11.4568,-10.2344 24.826,-10.2344 z"
       id="path-5" />
    <path
       d="m 254.3256,63.3859 h 31.5808 c -0.9737,-7.8086 -6.4828,-13.3065 -13.6412,-13.3065 -8.9128,0 -15.3605,4.8162 -17.9396,13.3065 z m 17.9396,-32.7395 c 22.8435,0 38.1953,16.538 38.1953,41.1501 0,2.4966 -0.465,7.6049 -0.5088,7.8174 l -0.1316,1.5759 h -56.3805 c 2.0615,11.5093 10.7813,18.8486 22.6943,18.8486 12.413,0 21.8083,-8.7381 21.9136,-8.8178 l 1.5351,-1.4697 10.3603,17.3436 -0.9562,0.9562 c -0.5439,0.5312 -13.3429,13.0497 -34.2915,13.0497 -26.6331,0 -45.9589,-19.0257 -45.9589,-45.2226 0,-26.6306 17.9134,-45.2314 43.5289,-45.2314 z"
       id="path-7" />
    <path
       d="m 354.535,100.1951 c 9.1497,0 18.9397,-6.4186 18.9397,-24.4793 0,-11.8722 -5.7635,-23.833 -18.6151,-23.833 -11.334,0 -18.9485,9.6324 -18.9485,23.9924 0,14.7673 7.3162,24.3199 18.6239,24.3199 z m 42.3973,-3.798 c 0,1.3191 0.5088,1.8503 1.8246,1.8503 h 8.0093 v 20.8849 h -20.5977 c -8.8953,0 -11.2902,-4.7276 -11.7727,-8.4637 -3.6932,4.285 -11.255,10.4291 -24.3698,10.4291 -22.9487,0 -38.3707,-18.1669 -38.3707,-45.2225 0,-26.6307 16.0974,-45.2314 39.169,-45.2314 11.7989,0 18.6502,4.2053 22.1592,7.4013 V 22.9414 c 0,-1.3988 -0.4474,-1.8415 -1.8247,-1.8415 h -8.1847 V 0.0203 h 21.2469 c 8.5444,0 12.7113,4.1964 12.7113,12.8107 z"
       id="path-9" />
    <path
       d="m 459.672,31.4574 c 1.9036,0 3.9212,0.3276 3.9914,0.3453 l 1.4475,0.2479 v 23.8507 l -1.9826,-0.301 c -0.0351,-0.0089 -2.0177,-0.301 -4.7459,-0.301 -7.6934,0 -17.2028,4.2495 -20.7819,16.1926 -1.1229,4.0637 -1.7019,8.4549 -1.7019,13.0143 v 34.6252 H 412.1253 V 55.5118 c 0,-1.3989 -0.4562,-1.8415 -1.8335,-1.8415 h -8.1759 V 32.5995 h 20.4398 c 8.4216,0 12.7113,3.9839 12.7113,11.8279 v 1.9743 c 5.4038,-9.1808 14.5096,-14.9443 24.405,-14.9443 z"
       id="path-11" />
    <path
       d="m 498.9515,96.3962 c 0,1.3191 0.5088,1.8503 1.8246,1.8503 h 8.1935 v 20.8849 H 487.714 c -8.5532,0 -12.5446,-4.0636 -12.5446,-12.8107 V 55.5118 c 0,-1.39 -0.4387,-1.8415 -1.8247,-1.8415 H 467.204 V 32.5995 h 19.2204 c 8.4303,0 12.5271,4.1964 12.5271,12.8107 z"
       id="path-13" />
    <path
       d="M 588.7077,32.6012 V 53.672 h -3.6494 c -1.8597,0 -2.4738,0.6375 -2.9124,1.8061 l -23.9927,63.6551 H 531.4148 L 507.4221,55.4781 C 506.9835,54.3095 506.387,53.672 504.5272,53.672 H 501.027 V 32.6012 h 13.4921 c 7.5092,0 11.3515,2.5144 13.7288,8.9507 l 15.501,43.6732 c 0.5877,1.6202 1.1228,3.4617 1.5702,5.2058 0.4299,-1.7441 0.9299,-3.5591 1.465,-5.1792 L 562.285,41.5608 c 2.3511,-6.3656 6.325,-8.9596 13.7377,-8.9596 z"
       id="path-15" />
    <path
       d="m 611.7108,63.3859 h 31.5808 c -0.9737,-7.8086 -6.4741,-13.3065 -13.6499,-13.3065 -8.9041,0 -15.3255,4.8162 -17.9309,13.3065 z m 17.9309,-32.7395 c 22.861,0 38.2215,16.538 38.2215,41.1501 0,2.4966 -0.4825,7.6049 -0.5088,7.8174 l -0.1316,1.5759 h -56.398 c 2.0615,11.5093 10.7813,18.8486 22.7031,18.8486 12.3691,0 21.817,-8.7381 21.896,-8.8178 l 1.579,-1.4697 10.334,17.3436 -0.965,0.9562 c -0.5351,0.5312 -13.3429,13.0497 -34.3003,13.0497 -26.6331,0 -45.9413,-19.0257 -45.9413,-45.2226 0,-26.6306 17.9046,-45.2314 43.5114,-45.2314 z"
       id="path-17" />
    <polygon
       id="path-19"
       points="104.2255,0.0265 125.4197,0.0265 125.4197,22.5581 104.2255,22.5581 " />
    <polygon
       id="path-21"
       points="476.1335,0.0265 497.3365,0.0265 497.3365,22.5581 476.1335,22.5581 " />
    <path
       d="m 33.3002,76.3621 c 0,11.465 5.8162,23.833 18.6152,23.833 9.4917,0 19.0888,-7.4102 19.0888,-24.0012 0,-14.5459 -7.5443,-24.3111 -18.773,-24.3111 -9.1497,0 -18.931,6.4275 -18.931,24.4793 z m 23.44,-45.7183 c 22.9487,0 38.3795,18.1758 38.3795,45.2314 0,26.6306 -16.2554,45.2225 -39.4936,45.2225 -11.0796,0 -18.1765,-4.7453 -21.8873,-8.1804 0.0264,0.8145 0.0439,1.7264 0.0439,2.7003 v 36.11249 H 10.00936 V 55.5126 c 0,-1.3988 -0.44739,-1.8414 -1.83344,-1.8414 H 0 V 32.6003 h 19.94855 c 9.18475,0 11.53575,4.6746 11.98315,8.2779 C 35.66,36.6994 43.3885,30.6438 56.7402,30.6438 Z"
       id="path-23" />
  </defs>
  <g
     id="Pipedrive_full_logo_dark"
     stroke="none"
     stroke-width="1"
     fill="none"
     fill-rule="evenodd"
     transform="matrix(1.2277964,0,0,1.2277964,-93.312526,-93.337451)">
    <g
       id="Pipedrive_full_logo">
      <mask
         id="mask-2"
         fill="#ffffff">
        <use
           href="#path-1"
           id="use1" />
      </mask>
      <g
         id="Background"
         opacity="0" />
      <g
         id="Logo"
         transform="translate(76,76)">
        <mask
           id="mask-4"
           fill="#ffffff">
          <use
             xlink:href="#path-3"
             id="use2" />
        </mask>
        <use
           id="Clip-8"
           fill="#26292c"
           xlink:href="#path-3" />
        <mask
           id="mask-6"
           fill="#ffffff">
          <use
             xlink:href="#path-5"
             id="use3" />
        </mask>
        <use
           id="Clip-11"
           fill="#26292c"
           xlink:href="#path-5" />
        <mask
           id="mask-8"
           fill="#ffffff">
          <use
             xlink:href="#path-7"
             id="use4" />
        </mask>
        <use
           id="Clip-14"
           fill="#26292c"
           xlink:href="#path-7" />
        <mask
           id="mask-10"
           fill="#ffffff">
          <use
             xlink:href="#path-9"
             id="use5" />
        </mask>
        <use
           id="Clip-17"
           fill="#26292c"
           xlink:href="#path-9" />
        <mask
           id="mask-12"
           fill="#ffffff">
          <use
             xlink:href="#path-11"
             id="use6" />
        </mask>
        <use
           id="Clip-20"
           fill="#26292c"
           xlink:href="#path-11" />
        <mask
           id="mask-14"
           fill="#ffffff">
          <use
             xlink:href="#path-13"
             id="use7" />
        </mask>
        <use
           id="Clip-23"
           fill="#26292c"
           xlink:href="#path-13" />
        <mask
           id="mask-16"
           fill="#ffffff">
          <use
             xlink:href="#path-15"
             id="use8" />
        </mask>
        <use
           id="Clip-26"
           fill="#26292c"
           xlink:href="#path-15" />
        <mask
           id="mask-18"
           fill="#ffffff">
          <use
             xlink:href="#path-17"
             id="use9" />
        </mask>
        <use
           id="Clip-29"
           fill="#26292c"
           xlink:href="#path-17" />
        <mask
           id="mask-20"
           fill="#ffffff">
          <use
             xlink:href="#path-19"
             id="use10" />
        </mask>
        <use
           id="Clip-32"
           fill="#26292c"
           xlink:href="#path-19" />
        <mask
           id="mask-22"
           fill="#ffffff">
          <use
             xlink:href="#path-21"
             id="use11" />
        </mask>
        <use
           id="Clip-35"
           fill="#26292c"
           xlink:href="#path-21" />
        <mask
           id="mask-24"
           fill="#ffffff">
          <use
             xlink:href="#path-23"
             id="use12" />
        </mask>
        <use
           id="Clip-5"
           fill="#26292c"
           xlink:href="#path-23" />
      </g>
    </g>
  </g>
  <metadata
     id="metadata12">
    <rdf:RDF>
      <cc:Work
         rdf:about="">
        <dc:title>&#10;  Pipedrive_full_logo_dark@1,5x&#10; </dc:title>
      </cc:Work>
    </rdf:RDF>
  </metadata>
</svg>
