<?xml version="1.0" encoding="UTF-8" standalone="no"?>
<!-- Created with Inkscape (http://www.inkscape.org/) -->

<svg
   width="500"
   height="135.49075"
   viewBox="0 0 132.29167 35.848595"
   version="1.1"
   id="svg1"
   xml:space="preserve"
   xmlns="http://www.w3.org/2000/svg"
   xmlns:svg="http://www.w3.org/2000/svg"><defs
     id="defs1"><style
       id="style1">.cls-1{fill:none;}.cls-2{clip-path:url(#clippath);}.cls-3{fill:url(#Nepojmenovaný_přechod_3);}.cls-4{fill:url(#Nepojmenovaný_přechod_2);}.cls-5{clip-path:url(#clippath-1);}.cls-6{clip-path:url(#clippath-2);}.cls-7{fill:url(#Nepojmenovaný_přechod);}</style><clipPath
       id="clippath"><path
         class="cls-1"
         d="m 156.04,44.34 h 33.88 c 2.58,0 4.68,2.1 4.68,4.68 v 125.07 c 0,2.58 -2.1,4.68 -4.68,4.68 h -33.88 c -2.58,0 -4.68,-2.1 -4.68,-4.68 V 49.02 c 0,-2.58 2.1,-4.68 4.68,-4.68 z"
         id="path1" /></clipPath><linearGradient
       id="Nepojmenovaný_přechod"
       x1="-167.49001"
       y1="470.26001"
       x2="-166.49001"
       y2="470.26001"
       gradientTransform="matrix(97.45,0,0,-97.45,16426.9,45936.4)"
       gradientUnits="userSpaceOnUse"><stop
         offset="0"
         stop-color="#b02de9"
         id="stop1" /><stop
         offset=".02"
         stop-color="#b02de9"
         id="stop2" /><stop
         offset=".8"
         stop-color="#6d00cc"
         id="stop3" /><stop
         offset="1"
         stop-color="#6d00cc"
         id="stop4" /></linearGradient><clipPath
       id="clippath-1"><path
         class="cls-1"
         d="M 56.66,45.99 0.5,157.74 c -1.16,2.31 -0.23,5.12 2.08,6.28 l 30.27,15.21 c 2.31,1.16 5.12,0.23 6.28,-2.08 L 95.29,65.4 c 1.16,-2.31 0.23,-5.12 -2.08,-6.28 L 62.94,43.91 c -0.68,-0.34 -1.39,-0.5 -2.1,-0.5 -1.71,0 -3.36,0.94 -4.18,2.58"
         id="path4" /></clipPath><linearGradient
       id="Nepojmenovaný_přechod_2"
       x1="-167.49001"
       y1="470.26001"
       x2="-166.49001"
       y2="470.26001"
       gradientTransform="matrix(107.08,0,0,-107.08,17962.6,50466.15)"
       gradientUnits="userSpaceOnUse"><stop
         offset="0"
         stop-color="#f0f"
         id="stop5" /><stop
         offset="0"
         stop-color="#f0f"
         id="stop6" /><stop
         offset=".17"
         stop-color="#e90cf9"
         id="stop7" /><stop
         offset=".54"
         stop-color="#c023ed"
         id="stop8" /><stop
         offset=".73"
         stop-color="#b02de9"
         id="stop9" /><stop
         offset="1"
         stop-color="#b02de9"
         id="stop10" /></linearGradient><clipPath
       id="clippath-2"><path
         class="cls-1"
         d="M 103.9,46.39 79.87,168.2 c -0.5,2.53 1.14,4.98 3.67,5.49 l 33.21,6.7 c 2.54,0.51 5.02,-1.14 5.52,-3.68 L 146.3,54.9 c 0.5,-2.53 -1.14,-4.98 -3.67,-5.49 l -33.21,-6.7 c -0.31,-0.06 -0.62,-0.09 -0.93,-0.09 -2.19,0 -4.15,1.54 -4.59,3.77"
         id="path10" /></clipPath><linearGradient
       id="Nepojmenovaný_přechod_3"
       x1="-167.49001"
       y1="470.26001"
       x2="-166.49001"
       y2="470.26001"
       gradientTransform="matrix(214.7,0,0,-214.7,35959.81,101077.55)"
       gradientUnits="userSpaceOnUse"><stop
         offset="0"
         stop-color="#f0f"
         id="stop11" /><stop
         offset=".02"
         stop-color="#f0f"
         id="stop12" /><stop
         offset=".09"
         stop-color="#e90cf9"
         id="stop13" /><stop
         offset=".23"
         stop-color="#c023ed"
         id="stop14" /><stop
         offset=".3"
         stop-color="#b02de9"
         id="stop15" /><stop
         offset=".42"
         stop-color="#a42be3"
         id="stop16" /><stop
         offset=".63"
         stop-color="#8626d5"
         id="stop17" /><stop
         offset=".85"
         stop-color="#6021c3"
         id="stop18" /><stop
         offset="1"
         stop-color="#6021c3"
         id="stop19" /></linearGradient></defs><g
     id="layer1"
     transform="translate(246.61644,35.302944)"><g
       style="fill:none"
       id="g2"
       transform="matrix(0.51212321,0,0,0.51212321,-246.61644,-35.302975)"><path
         d="M 60.654,47.966 60.617,47.851 83.585,26.824 V 16.693 H 46.737 v 10.131 h 22.01 l 0.036,0.097 -22.744,21.045 V 58.097 H 83.955 V 47.967 H 60.654 Z m 45.923,-32.237 c -4.25,0 -7.714,0.64 -10.391,1.923 a 13.637,13.637 0 0 0 -6.03,5.284 19.238,19.238 0 0 0 -2.53,7.643 l 11.18,1.572 c 0.405,-2.383 1.214,-4.071 2.427,-5.066 a 7.408,7.408 0 0 1 4.805,-1.486 c 2.269,0 3.915,0.606 4.938,1.82 1.014,1.213 1.529,2.893 1.529,5.108 v 1.104 h -10.75 c -5.472,0 -9.403,1.213 -11.794,3.64 -2.39,2.426 -3.583,5.63 -3.579,9.61 0,4.076 1.193,7.11 3.58,9.1 2.386,1.989 5.387,2.978 9.002,2.966 4.485,0 7.936,-1.543 10.35,-4.63 a 17.21,17.21 0 0 0 2.991,-6.375 h 0.406 l 1.541,10.131 h 10.131 V 32.417 c 0,-5.302 -1.397,-9.409 -4.192,-12.32 -2.794,-2.913 -7.333,-4.369 -13.614,-4.369 z m 3.544,31.624 c -1.608,1.341 -3.713,2.008 -6.334,2.008 -2.16,0 -3.66,-0.378 -4.501,-1.134 a 3.706,3.706 0 0 1 -1.268,-2.881 3.786,3.786 0 0 1 1.05,-2.797 3.899,3.899 0 0 1 2.881,-1.05 h 10.574 v 0.698 a 6.439,6.439 0 0 1 -2.402,5.157 z m 75.522,-30.66 h -11.969 v 41.41 h 11.969 z m 70.669,0 c -3.381,0 -6.046,1.193 -7.995,3.58 -1.399,1.714 -2.463,4.248 -3.191,7.6 h -0.352 l -1.565,-11.18 h -10.222 v 41.404 h 11.97 V 36.864 c 0,-2.677 0.626,-4.73 1.88,-6.157 1.254,-1.428 3.567,-2.142 6.94,-2.142 h 4.543 V 16.693 Z m -35.204,1.353 c -2.794,-1.662 -6.319,-2.491 -10.573,-2.487 -6.698,0 -11.94,1.906 -15.725,5.72 -3.786,3.814 -5.678,9.072 -5.678,15.774 a 25.134,25.134 0 0 0 2.578,11.702 18.584,18.584 0 0 0 7.34,7.735 c 3.171,1.832 6.942,2.75 11.315,2.754 3.781,0 6.94,-0.582 9.475,-1.747 a 15.234,15.234 0 0 0 6.031,-4.763 20.766,20.766 0 0 0 3.275,-6.77 l -10.312,-2.887 a 9.562,9.562 0 0 1 -2.427,4.198 c -1.165,1.164 -3.117,1.747 -5.854,1.747 -3.256,0 -5.683,-0.932 -7.28,-2.797 -1.16,-1.347 -1.887,-3.27 -2.208,-5.763 h 28.239 c 0.116,-1.165 0.176,-2.142 0.176,-2.93 v -2.579 a 23,23 0 0 0 -2.092,-10.046 15.73,15.73 0 0 0 -6.28,-6.861 z m -10.919,7.383 c 4.853,0 7.604,2.388 8.256,7.165 h -17.168 a 9.85,9.85 0 0 1 1.923,-4.375 c 1.573,-1.864 3.903,-2.794 6.989,-2.79 z m -30.4,-25.425 a 6.72,6.72 0 0 0 -4.896,1.88 6.502,6.502 0 0 0 -1.923,4.854 6.576,6.576 0 0 0 1.926,4.891 6.576,6.576 0 0 0 4.893,1.921 6.475,6.475 0 0 0 4.853,-1.923 6.665,6.665 0 0 0 1.875,-4.89 6.428,6.428 0 0 0 -1.876,-4.846 6.437,6.437 0 0 0 -4.846,-1.881 z m -24.727,15.555 c -4.077,0 -7.353,1.28 -9.828,3.84 -1.833,1.896 -3.177,4.728 -4.034,8.493 h -0.382 l -1.566,-11.18 H 129.03 V 70 h 11.969 V 48.051 h 0.437 a 22.323,22.323 0 0 0 1.529,4.247 12.047,12.047 0 0 0 4.763,5.326 13.984,13.984 0 0 0 7.073,1.705 c 5.011,0 8.826,-1.952 11.447,-5.854 2.621,-3.903 3.932,-9.349 3.932,-16.338 0,-6.75 -1.269,-12.034 -3.804,-15.852 -2.536,-3.817 -6.307,-5.726 -11.314,-5.726 z m 1.213,30.005 c -1.396,2.022 -3.579,3.033 -6.552,3.033 a 7.723,7.723 0 0 1 -6.418,-2.93 c -1.55,-1.945 -2.322,-4.609 -2.317,-7.99 v -0.788 c 0,-3.434 0.772,-6.063 2.317,-7.887 1.544,-1.824 3.685,-2.726 6.418,-2.706 3.026,0 5.223,0.96 6.595,2.882 1.371,1.921 2.056,4.6 2.056,8.038 0.009,3.555 -0.687,6.338 -2.087,8.348 z"
         fill="#201515"
         id="path1-8" /><path
         d="M 41.41,47.966 H 0 V 58.11 h 41.41 z"
         fill="#ff4f00"
         id="path2" /></g></g></svg>
